<!DOCTYPE svg PUBLIC "-//W3C//DTD SVG 1.1//EN" "http://www.w3.org/Graphics/SVG/1.1/DTD/svg11.dtd">
                <svg xmlns="http://www.w3.org/2000/svg" xmlns:xlink="http://www.w3.org/1999/xlink" 
                width="984" height="1244">
                
                <g>
                   <rect x="50" y="65"
            width="209.4" height="30"
            rx="3" ry="3"
            style="fill:#90caf9; stroke:#444; stroke-width:1" />
                   <title>gameBuild = &quot;GameBuild&quot;</title>
            <text x="65" y="85"
                font-family="monospace" font-size="13" fill="#222">
                <tspan x="65" y="85">gameBuild = &quot;GameBuild&quot;</tspan>
            </text>
                   
                   
                </g>
            <g>
                <rect x="50" y="128.5"
            width="323" height="30"
            style="fill:#a5d6a7; stroke:#444; stroke-width:1" />
                    
                <line x1="60" y1="128.5" x2="60" y2="158.5"
                style="fill:#a5d6a7; stroke:#444; stroke-width:1" />
                <line x1="363" y1="128.5" x2="363" y2="158.5"
                style="fill:#a5d6a7; stroke:#444; stroke-width:1" />
             
                <title>function gameDevelopment(gameBuild)</title>
            <text x="75" y="148.5"
                font-family="monospace" font-size="13" fill="#222">
                <tspan x="75" y="148.5">function gameDevelopment(gameBuild)</tspan>
            </text>
                
            </g><g>

            <rect x="117" y="212"
            width="216" height="30"
            rx="3" ry="3"
            style="fill:#b39ddb; stroke:#444; stroke-width:1" />
            <polygon points="87,227 117,197 147,227 117,257"
            style="fill:#b39ddb; stroke:#444; stroke-width:1" />
                
            <title>testResult == &quot;FAIL&quot;</title>
            <text x="162" y="232"
                font-family="monospace" font-size="13" fill="#222">
                <tspan x="162" y="232">testResult == &quot;FAIL&quot;</tspan>
            </text>
            
            <text x="97.5" y="232"
        font-family="monospace" font-size="13" fill="#222">while</text>
        </g>
                <g>
                   <rect x="137" y="267"
            width="256.2" height="30"
            rx="3" ry="3"
            style="fill:#90caf9; stroke:#444; stroke-width:1" />
                   <title>gameBuild = developGameFlow()</title>
            <text x="152" y="287"
                font-family="monospace" font-size="13" fill="#222">
                <tspan x="152" y="287">gameBuild = developGameFlow()</tspan>
            </text>
                   
                   
                </g>
                <g>
                   <rect x="137" y="315.5"
            width="381" height="30"
            rx="3" ry="3"
            style="fill:#90caf9; stroke:#444; stroke-width:1" />
                   <title>testResult = testGameFlowOnSandbox(gameBuild)</title>
            <text x="152" y="335.5"
                font-family="monospace" font-size="13" fill="#222">
                <tspan x="152" y="335.5">testResult = testGameFlowOnSandbox(gameBuild)</tspan>
            </text>
                   
                   
                </g>
                <g>
                   <rect x="87" y="364"
            width="256.2" height="30"
            rx="2" ry="2"
            style="fill:#C5E1A5; stroke:#444; stroke-width:1" />
                   <title>gameStagingTesting(gameBuild)</title>
            <text x="102" y="384"
                font-family="monospace" font-size="13" fill="#222">
                <tspan x="102" y="384">gameStagingTesting(gameBuild)</tspan>
            </text>
                   
                   
                </g>
            <g>
                <rect x="50" y="427.5"
            width="346.4" height="30"
            style="fill:#a5d6a7; stroke:#444; stroke-width:1" />
                    
                <line x1="60" y1="427.5" x2="60" y2="457.5"
                style="fill:#a5d6a7; stroke:#444; stroke-width:1" />
                <line x1="386.4" y1="427.5" x2="386.4" y2="457.5"
                style="fill:#a5d6a7; stroke:#444; stroke-width:1" />
             
                <title>function gameStagingTesting(gameBuild)</title>
            <text x="75" y="447.5"
                font-family="monospace" font-size="13" fill="#222">
                <tspan x="75" y="447.5">function gameStagingTesting(gameBuild)</tspan>
            </text>
                
            </g>
                <g>
                   <rect x="87" y="476"
            width="295.2" height="30"
            rx="2" ry="2"
            style="fill:#C5E1A5; stroke:#444; stroke-width:1" />
                   <title>releaseGameOnGOSStaging(gameBuild)</title>
            <text x="102" y="496"
                font-family="monospace" font-size="13" fill="#222">
                <tspan x="102" y="496">releaseGameOnGOSStaging(gameBuild)</tspan>
            </text>
                   
                   
                </g><g>
            <rect x="117" y="539.5"
            width="231.60000000000002" height="30"
            rx="3" ry="3"
            style="fill:#ce93d8; stroke:#444; stroke-width:1" />                
            <polygon points="87,554.5 117,524.5 147,554.5 117,584.5"
            style="fill:#ce93d8; stroke:#444; stroke-width:1" />
            <title>(testResult == &quot;FAIL&quot;)</title>
            <text x="162" y="559.5"
                font-family="monospace" font-size="13" fill="#222">
                <tspan x="162" y="559.5">(testResult == &quot;FAIL&quot;)</tspan>
            </text>
            
            <text x="109.2" y="559.5"
        font-family="monospace" font-size="13" fill="#222">if</text> <text x="124.8" y="586.45"
        font-family="monospace" font-size="13" fill="#222">+</text> <text x="352.5" y="552.55"
        font-family="monospace" font-size="13" fill="#222">-</text>
        </g>
                <g>
                   <rect x="137" y="594.5"
            width="232.79999999999998" height="30"
            rx="2" ry="2"
            style="fill:#C5E1A5; stroke:#444; stroke-width:1" />
                   <title>gameDevelopment(gameBuild)</title>
            <text x="152" y="614.5"
                font-family="monospace" font-size="13" fill="#222">
                <tspan x="152" y="614.5">gameDevelopment(gameBuild)</tspan>
            </text>
                   
                   
                </g>
                <g>
                   <rect x="429.79999999999995" y="594.5"
            width="365.4" height="30"
            rx="3" ry="3"
            style="fill:#90caf9; stroke:#444; stroke-width:1" />
                   <title>shouldUpAPIVersion |= willUpdateSDK == true</title>
            <text x="444.79999999999995" y="614.5"
                font-family="monospace" font-size="13" fill="#222">
                <tspan x="444.79999999999995" y="614.5">shouldUpAPIVersion |= willUpdateSDK == true</tspan>
            </text>
                   
                   
                </g>
                <g>
                   <rect x="429.79999999999995" y="643"
            width="420" height="30"
            rx="3" ry="3"
            style="fill:#90caf9; stroke:#444; stroke-width:1" />
                   <title>shouldUpAPIVersion |= willChangeOnAirDatas == true</title>
            <text x="444.79999999999995" y="663"
                font-family="monospace" font-size="13" fill="#222">
                <tspan x="444.79999999999995" y="663">shouldUpAPIVersion |= willChangeOnAirDatas == true</tspan>
            </text>
                   
                   
                </g>
                <g>
                   <rect x="429.79999999999995" y="691.5"
            width="420" height="30"
            rx="3" ry="3"
            style="fill:#90caf9; stroke:#444; stroke-width:1" />
                   <title>shouldUpAPIVersion |= willAffectOlderGames == true</title>
            <text x="444.79999999999995" y="711.5"
                font-family="monospace" font-size="13" fill="#222">
                <tspan x="444.79999999999995" y="711.5">shouldUpAPIVersion |= willAffectOlderGames == true</tspan>
            </text>
                   
                   
                </g>
                <g>
                   <rect x="429.79999999999995" y="740"
            width="388.8" height="30"
            rx="3" ry="3"
            style="fill:#90caf9; stroke:#444; stroke-width:1" />
                   <title>shouldUpAPIVersion |= dangerousChanges == true</title>
            <text x="444.79999999999995" y="760"
                font-family="monospace" font-size="13" fill="#222">
                <tspan x="444.79999999999995" y="760">shouldUpAPIVersion |= dangerousChanges == true</tspan>
            </text>
                   
                   
                </g><g>
            <rect x="459.79999999999995" y="803.5"
            width="216" height="30"
            rx="3" ry="3"
            style="fill:#ce93d8; stroke:#444; stroke-width:1" />                
            <polygon points="429.79999999999995,818.5 459.79999999999995,788.5 489.79999999999995,818.5 459.79999999999995,848.5"
            style="fill:#ce93d8; stroke:#444; stroke-width:1" />
            <title>(shouldUpAPIVersion)</title>
            <text x="504.79999999999995" y="823.5"
                font-family="monospace" font-size="13" fill="#222">
                <tspan x="504.79999999999995" y="823.5">(shouldUpAPIVersion)</tspan>
            </text>
            
            <text x="451.99999999999994" y="823.5"
        font-family="monospace" font-size="13" fill="#222">if</text> <text x="467.59999999999997" y="850.45"
        font-family="monospace" font-size="13" fill="#222">+</text> <text x="679.6999999999999" y="816.55"
        font-family="monospace" font-size="13" fill="#222">-</text>
        </g>
                <g>
                   <rect x="479.79999999999995" y="858.5"
            width="248.4" height="30"
            rx="2" ry="2"
            style="fill:#C5E1A5; stroke:#444; stroke-width:1" />
                   <title>incrementGameConfigVersion()</title>
            <text x="494.79999999999995" y="878.5"
                font-family="monospace" font-size="13" fill="#222">
                <tspan x="494.79999999999995" y="878.5">incrementGameConfigVersion()</tspan>
            </text>
                   
                   
                </g>
                <g>
                   <rect x="479.79999999999995" y="907"
            width="279.6" height="30"
            rx="2" ry="2"
            style="fill:#C5E1A5; stroke:#444; stroke-width:1" />
                   <title>gameProductionTesting(gameBuild)</title>
            <text x="494.79999999999995" y="927"
                font-family="monospace" font-size="13" fill="#222">
                <tspan x="494.79999999999995" y="927">gameProductionTesting(gameBuild)</tspan>
            </text>
                   
                   
                </g>
                <g>
                   <rect x="819.4" y="858.5"
            width="139.2" height="30"
            rx="2" ry="2"
            style="fill:#C5E1A5; stroke:#444; stroke-width:1" />
                   <title>releaseBuild()</title>
            <text x="834.4" y="878.5"
                font-family="monospace" font-size="13" fill="#222">
                <tspan x="834.4" y="878.5">releaseBuild()</tspan>
            </text>
                   
                   
                </g>
            <g>
                <rect x="50" y="972"
            width="369.8" height="30"
            style="fill:#a5d6a7; stroke:#444; stroke-width:1" />
                    
                <line x1="60" y1="972" x2="60" y2="1002"
                style="fill:#a5d6a7; stroke:#444; stroke-width:1" />
                <line x1="409.8" y1="972" x2="409.8" y2="1002"
                style="fill:#a5d6a7; stroke:#444; stroke-width:1" />
             
                <title>function gameProductionTesting(gameBuild)</title>
            <text x="75" y="992"
                font-family="monospace" font-size="13" fill="#222">
                <tspan x="75" y="992">function gameProductionTesting(gameBuild)</tspan>
            </text>
                
            </g>
                <g>
                   <rect x="87" y="1020.5"
            width="264" height="30"
            rx="2" ry="2"
            style="fill:#C5E1A5; stroke:#444; stroke-width:1" />
                   <title>releaseGameOnGOSPrd(gameBuild)</title>
            <text x="102" y="1040.5"
                font-family="monospace" font-size="13" fill="#222">
                <tspan x="102" y="1040.5">releaseGameOnGOSPrd(gameBuild)</tspan>
            </text>
                   
                   
                </g><g>
            <rect x="117" y="1084"
            width="231.60000000000002" height="30"
            rx="3" ry="3"
            style="fill:#ce93d8; stroke:#444; stroke-width:1" />                
            <polygon points="87,1099 117,1069 147,1099 117,1129"
            style="fill:#ce93d8; stroke:#444; stroke-width:1" />
            <title>(testResult == &quot;FAIL&quot;)</title>
            <text x="162" y="1104"
                font-family="monospace" font-size="13" fill="#222">
                <tspan x="162" y="1104">(testResult == &quot;FAIL&quot;)</tspan>
            </text>
            
            <text x="109.2" y="1104"
        font-family="monospace" font-size="13" fill="#222">if</text> <text x="124.8" y="1130.95"
        font-family="monospace" font-size="13" fill="#222">+</text> <text x="352.5" y="1097.05"
        font-family="monospace" font-size="13" fill="#222">-</text>
        </g>
                <g>
                   <rect x="137" y="1139"
            width="232.79999999999998" height="30"
            rx="2" ry="2"
            style="fill:#C5E1A5; stroke:#444; stroke-width:1" />
                   <title>gameDevelopment(gameBuild)</title>
            <text x="152" y="1159"
                font-family="monospace" font-size="13" fill="#222">
                <tspan x="152" y="1159">gameDevelopment(gameBuild)</tspan>
            </text>
                   
                   
                </g>
                <g>
                   <rect x="429.79999999999995" y="1139"
            width="248.4" height="30"
            rx="2" ry="2"
            style="fill:#C5E1A5; stroke:#444; stroke-width:1" />
                   <title>testGameOnGOSSPrd(gameBuild)</title>
            <text x="444.79999999999995" y="1159"
                font-family="monospace" font-size="13" fill="#222">
                <tspan x="444.79999999999995" y="1159">testGameOnGOSSPrd(gameBuild)</tspan>
            </text>
                   
                   
                </g>
                <g>
                   <rect x="87" y="1189"
            width="139.2" height="30"
            rx="2" ry="2"
            style="fill:#C5E1A5; stroke:#444; stroke-width:1" />
                   <title>releaseBuild()</title>
            <text x="102" y="1209"
                font-family="monospace" font-size="13" fill="#222">
                <tspan x="102" y="1209">releaseBuild()</tspan>
            </text>
                   
                   
                </g>
            <g>
               <rect x="25" y="13.75"
            width="216.6" height="24"
            style="fill:#fff59d; stroke:#444; stroke-width:1" />
               <circle cx="25" cy="25" r="15"
        style="fill:#fff59d; stroke:#444; stroke-width:1" />
               <title>Program: source module</title>
            <text x="55" y="30"
                font-family="monospace" font-size="13" fill="#222">
                <tspan x="55" y="30">Program: source module</tspan>
            </text>
            </g>
            <g>
               <path d="M25, 40 L25 76 Q25 80
                29 80
                L42 80 "
        style="fill:none; stroke:#444; stroke-width:1" />
               <path d="M42, 77 L50, 80 L42, 83 Z" 
        fill="#333" />
            </g>
            <g>
               <path d="M25, 40 L25 139.5 Q25 143.5
                29 143.5
                L42 143.5 "
        style="fill:none; stroke:#444; stroke-width:1" />
               <path d="M42, 140.5 L50, 143.5 L42, 146.5 Z" 
        fill="#333" />
            </g>
            <g>
               <path d="M68.5, 158.5 L68.5 223 Q68.5 227
                72.5 227
                L79 227 "
        style="fill:none; stroke:#444; stroke-width:1" />
               <path d="M79, 224 L87, 227 L79, 230 Z" 
        fill="#333" />
            </g>
            <g>
               <path d="M117, 257 L117 278 Q117 282
                121 282
                L129 282 "
        style="fill:none; stroke:#444; stroke-width:1" />
               <path d="M129, 279 L137, 282 L129, 285 Z" 
        fill="#333" />
            </g>
            <g>
               <path d="M117, 257 L117 326.5 Q117 330.5
                121 330.5
                L129 330.5 "
        style="fill:none; stroke:#444; stroke-width:1" />
               <path d="M129, 327.5 L137, 330.5 L129, 333.5 Z" 
        fill="#333" />
            </g>
            <g>
               <path d="M518, 330.5 L534 330.5  Q538 330.5
                538 326.5
                L538 185 Q538 177
                534 177
                L125 177  Q117 177
                117 181
                L117 189"
        style="fill:none; stroke:#444; stroke-width:1" />
               <path d="M114, 189 L117, 197 L120, 189 Z" 
        fill="#333" />
            </g>
            <g>
               <path d="M68.5, 158.5 L68.5 375 Q68.5 379
                72.5 379
                L79 379 "
        style="fill:none; stroke:#444; stroke-width:1" />
               <path d="M79, 376 L87, 379 L79, 382 Z" 
        fill="#333" />
            </g>
            <g>
               <path d="M25, 40 L25 438.5 Q25 442.5
                29 442.5
                L42 442.5 "
        style="fill:none; stroke:#444; stroke-width:1" />
               <path d="M42, 439.5 L50, 442.5 L42, 445.5 Z" 
        fill="#333" />
            </g>
            <g>
               <path d="M68.5, 457.5 L68.5 487 Q68.5 491
                72.5 491
                L79 491 "
        style="fill:none; stroke:#444; stroke-width:1" />
               <path d="M79, 488 L87, 491 L79, 494 Z" 
        fill="#333" />
            </g>
            <g>
               <path d="M68.5, 457.5 L68.5 550.5 Q68.5 554.5
                72.5 554.5
                L79 554.5 "
        style="fill:none; stroke:#444; stroke-width:1" />
               <path d="M79, 551.5 L87, 554.5 L79, 557.5 Z" 
        fill="#333" />
            </g>
            <g>
               <path d="M117, 584.5 L117 605.5 Q117 609.5
                121 609.5
                L129 609.5 "
        style="fill:none; stroke:#444; stroke-width:1" />
               <path d="M129, 606.5 L137, 609.5 L129, 612.5 Z" 
        fill="#333" />
            </g>
            <g>
               <path d="M348.6, 554.5 L405.79999999999995 554.5  Q409.79999999999995 554.5
                409.79999999999995 558.5
                L409.79999999999995 601.5 Q409.79999999999995 609.5
                413.79999999999995 609.5
                L421.79999999999995 609.5 "
        style="fill:none; stroke:#444; stroke-width:1" />
               <path d="M421.79999999999995, 606.5 L429.79999999999995, 609.5 L421.79999999999995, 612.5 Z" 
        fill="#333" />
            </g>
            <g>
               <path d="M348.6, 554.5 L405.79999999999995 554.5  Q409.79999999999995 554.5
                409.79999999999995 558.5
                L409.79999999999995 650 Q409.79999999999995 658
                413.79999999999995 658
                L421.79999999999995 658 "
        style="fill:none; stroke:#444; stroke-width:1" />
               <path d="M421.79999999999995, 655 L429.79999999999995, 658 L421.79999999999995, 661 Z" 
        fill="#333" />
            </g>
            <g>
               <path d="M348.6, 554.5 L405.79999999999995 554.5  Q409.79999999999995 554.5
                409.79999999999995 558.5
                L409.79999999999995 698.5 Q409.79999999999995 706.5
                413.79999999999995 706.5
                L421.79999999999995 706.5 "
        style="fill:none; stroke:#444; stroke-width:1" />
               <path d="M421.79999999999995, 703.5 L429.79999999999995, 706.5 L421.79999999999995, 709.5 Z" 
        fill="#333" />
            </g>
            <g>
               <path d="M348.6, 554.5 L405.79999999999995 554.5  Q409.79999999999995 554.5
                409.79999999999995 558.5
                L409.79999999999995 747 Q409.79999999999995 755
                413.79999999999995 755
                L421.79999999999995 755 "
        style="fill:none; stroke:#444; stroke-width:1" />
               <path d="M421.79999999999995, 752 L429.79999999999995, 755 L421.79999999999995, 758 Z" 
        fill="#333" />
            </g>
            <g>
               <path d="M348.6, 554.5 L405.79999999999995 554.5  Q409.79999999999995 554.5
                409.79999999999995 558.5
                L409.79999999999995 810.5 Q409.79999999999995 818.5
                413.79999999999995 818.5
                L421.79999999999995 818.5 "
        style="fill:none; stroke:#444; stroke-width:1" />
               <path d="M421.79999999999995, 815.5 L429.79999999999995, 818.5 L421.79999999999995, 821.5 Z" 
        fill="#333" />
            </g>
            <g>
               <path d="M459.79999999999995, 848.5 L459.79999999999995 869.5 Q459.79999999999995 873.5
                463.79999999999995 873.5
                L471.79999999999995 873.5 "
        style="fill:none; stroke:#444; stroke-width:1" />
               <path d="M471.79999999999995, 870.5 L479.79999999999995, 873.5 L471.79999999999995, 876.5 Z" 
        fill="#333" />
            </g>
            <g>
               <path d="M459.79999999999995, 848.5 L459.79999999999995 918 Q459.79999999999995 922
                463.79999999999995 922
                L471.79999999999995 922 "
        style="fill:none; stroke:#444; stroke-width:1" />
               <path d="M471.79999999999995, 919 L479.79999999999995, 922 L471.79999999999995, 925 Z" 
        fill="#333" />
            </g>
            <g>
               <path d="M675.8, 818.5 L795.4 818.5  Q799.4 818.5
                799.4 822.5
                L799.4 865.5 Q799.4 873.5
                803.4 873.5
                L811.4 873.5 "
        style="fill:none; stroke:#444; stroke-width:1" />
               <path d="M811.4, 870.5 L819.4, 873.5 L811.4, 876.5 Z" 
        fill="#333" />
            </g>
            <g>
               <path d="M25, 40 L25 983 Q25 987
                29 987
                L42 987 "
        style="fill:none; stroke:#444; stroke-width:1" />
               <path d="M42, 984 L50, 987 L42, 990 Z" 
        fill="#333" />
            </g>
            <g>
               <path d="M68.5, 1002 L68.5 1031.5 Q68.5 1035.5
                72.5 1035.5
                L79 1035.5 "
        style="fill:none; stroke:#444; stroke-width:1" />
               <path d="M79, 1032.5 L87, 1035.5 L79, 1038.5 Z" 
        fill="#333" />
            </g>
            <g>
               <path d="M68.5, 1002 L68.5 1095 Q68.5 1099
                72.5 1099
                L79 1099 "
        style="fill:none; stroke:#444; stroke-width:1" />
               <path d="M79, 1096 L87, 1099 L79, 1102 Z" 
        fill="#333" />
            </g>
            <g>
               <path d="M117, 1129 L117 1150 Q117 1154
                121 1154
                L129 1154 "
        style="fill:none; stroke:#444; stroke-width:1" />
               <path d="M129, 1151 L137, 1154 L129, 1157 Z" 
        fill="#333" />
            </g>
            <g>
               <path d="M348.6, 1099 L405.79999999999995 1099  Q409.79999999999995 1099
                409.79999999999995 1103
                L409.79999999999995 1146 Q409.79999999999995 1154
                413.79999999999995 1154
                L421.79999999999995 1154 "
        style="fill:none; stroke:#444; stroke-width:1" />
               <path d="M421.79999999999995, 1151 L429.79999999999995, 1154 L421.79999999999995, 1157 Z" 
        fill="#333" />
            </g>
            <g>
               <path d="M68.5, 1002 L68.5 1200 Q68.5 1204
                72.5 1204
                L79 1204 "
        style="fill:none; stroke:#444; stroke-width:1" />
               <path d="M79, 1201 L87, 1204 L79, 1207 Z" 
        fill="#333" />
            </g>
            </svg>